# xmcd CD database file
#
# Track frame offsets:
#	150
#	13696
#	22891
#	37351
#	50143
#	68266
#	85694
#	100101
#	133849
#	144329
#	165244
#	174531
#	189863
#	205970
#
# Disc length: 2882 seconds
#
# Revision: 0
# Processed by: cddbd v1.5.2PL0 Copyright (c) Steve Scherf et al.
# Submitted via: CDex 1.70beta2
#
DISCID=b20b400e
DTITLE=ADTV - Salsa Tanz des Jahres 2009
DYEAR=2009
DGENRE=Salsa
TTITLE0=A Puro Dolor
TTITLE1=El Cucu
TTITLE2=Pau Pau
TTITLE3=Vecina
TTITLE4=Ya No Puedo Vivir Sin Ti
TTITLE5=Kikiriki
TTITLE6=Ran Kan Kan
TTITLE7=Yamulemao
TTITLE8=Coco Seco
TTITLE9=I Will Survive
TTITLE10=Johnny's Mambo
TTITLE11=Mi Tierra
TTITLE12=Demisando Corazon
TTITLE13=Salsa: Rhythm Only
EXTD=YEAR: 2009
EXTT0=
EXTT1=
EXTT2=
EXTT3=
EXTT4=
EXTT5=
EXTT6=
EXTT7=
EXTT8=
EXTT9=
EXTT10=
EXTT11=
EXTT12=
EXTT13=
PLAYORDER=
